<?xml version="1.0" encoding="iso-8859-1"?>
<!-- Generator: Adobe Illustrator 19.0.0, SVG Export Plug-In . SVG Version: 6.00 Build 0)  -->
<svg version="1.1" id="Layer_1" xmlns="http://www.w3.org/2000/svg" xmlns:xlink="http://www.w3.org/1999/xlink" x="0px" y="0px"
	 viewBox="0 0 512 512" style="enable-background:new 0 0 512 512;" xml:space="preserve">
<g>
	<g>
		<path d="M256,148.416c-100.246,0-181.792,81.546-181.792,181.792S155.754,512,256,512s181.792-81.546,181.792-181.792
			S356.246,148.416,256,148.416z M256,451.403c-66.826,0-121.195-54.369-121.195-121.195S189.174,209.013,256,209.013
			s121.195,54.369,121.195,121.195S322.826,451.403,256,451.403z"/>
	</g>
</g>
<g>
	<g>
		<path d="M360.503,69.32c-0.052-0.111,0.002-0.238-0.054-0.349L330.151,8.374C327.575,3.24,322.337,0,316.597,0H195.403
			c-5.741,0-10.978,3.24-13.552,8.374l-30.299,60.597c-0.056,0.111-0.002,0.238-0.054,0.349c-2.761,5.824-0.971,13.287,2.913,17.156
			l40.659,40.659c19.315-5.807,39.747-9.017,60.931-9.017c21.184,0,41.614,3.211,60.931,9.017l40.659-40.659
			C361.376,82.705,363.353,75.333,360.503,69.32z M189.618,60.597l15.149-30.299h102.465l15.149,30.299H189.618z"/>
	</g>
</g>
<g>
</g>
<g>
</g>
<g>
</g>
<g>
</g>
<g>
</g>
<g>
</g>
<g>
</g>
<g>
</g>
<g>
</g>
<g>
</g>
<g>
</g>
<g>
</g>
<g>
</g>
<g>
</g>
<g>
</g>
</svg>
