<?xml version="1.0" encoding="iso-8859-1"?>
<!-- Generator: Adobe Illustrator 18.0.0, SVG Export Plug-In . SVG Version: 6.00 Build 0)  -->
<!DOCTYPE svg PUBLIC "-//W3C//DTD SVG 1.1//EN" "http://www.w3.org/Graphics/SVG/1.1/DTD/svg11.dtd">
<svg version="1.1" id="Capa_1" xmlns="http://www.w3.org/2000/svg" xmlns:xlink="http://www.w3.org/1999/xlink" x="0px" y="0px"
	 viewBox="0 0 58 58" style="enable-background:new 0 0 58 58;" xml:space="preserve">
<g>
	<path d="M14.928,39.101l0.614,0.143c9.392,1.012,18.354,1.002,26.635-0.029l0.726-0.155c-0.206-0.458-0.418-0.901-0.645-1.324
		c-0.513-0.958-0.625-1.747-0.353-2.484c0.92-2.498,1.373-5.099,1.349-7.729c-0.022-2.349-0.558-4.726-1.592-7.064l-1.16-2.624
		c-0.979-2.216-0.847-4.662,0.366-6.711c1.687-2.854,2.575-5.185,2.641-6.927c0.021-0.553-0.185-1.083-0.578-1.491
		c-0.531-0.551-1.334-0.814-2.14-0.66c-2.722,0.518-9.436,2.587-12.974,10.589l-4.551,9.877C22.379,24.437,20.813,26,19.4,27.276
		c-1.256,1.133-1.448,2.929-0.459,4.271c0.371,0.504,0.342,1.139-0.073,1.618L14.928,39.101z M37.851,34.721l-1.859-0.977
		l-1.859,0.977l0.355-2.07l-1.504-1.466l2.078-0.302L35.992,29l0.929,1.883L39,31.185l-1.504,1.466L37.851,34.721z M33.063,14.883
		L33.992,13l0.929,1.883L37,15.185l-1.504,1.466l0.355,2.07l-1.859-0.977l-1.859,0.977l0.355-2.07l-1.504-1.466L33.063,14.883z
		 M29.078,23.883L30.008,22l0.929,1.883l2.078,0.302l-1.504,1.466l0.355,2.07l-1.859-0.977l-1.859,0.977l0.355-2.07L27,24.185
		L29.078,23.883z M25.063,34.163l0.929-1.883l0.929,1.883L29,34.465l-1.504,1.466L27.851,38l-1.859-0.977L24.134,38l0.355-2.07
		l-1.504-1.466L25.063,34.163z"/>
	<path d="M13.114,48.246C18.373,49.409,23.596,50,28.638,50h0.001c5.421,0,10.298-0.683,14.494-2.029
		c1.386-0.443,2.16-1.819,1.763-3.131l-0.58-1.919c-0.219-0.723-0.438-1.367-0.66-1.982l-1.146,0.245
		c-4.319,0.54-8.793,0.81-13.397,0.81c-4.497,0-9.118-0.257-13.846-0.769l-0.119-0.021l-1.4-0.326l-2.336,3.52
		c-0.452,0.682-0.537,1.504-0.233,2.256C11.501,47.454,12.225,48.049,13.114,48.246z"/>
	<path d="M46.522,43.311l0.287,0.95c0.718,2.368-0.629,4.835-3.067,5.615C39.351,51.285,34.269,52,28.639,52
		c-5.185,0-10.553-0.606-15.956-1.801c-1.534-0.341-2.789-1.385-3.359-2.796c-0.5-1.237-0.42-2.573,0.201-3.732
		C3.204,44.941,0,46.728,0,49c0,5.136,17.343,7,29,7s29-1.864,29-7C58,45.993,52.272,44.278,46.522,43.311z"/>
</g>
<g>
</g>
<g>
</g>
<g>
</g>
<g>
</g>
<g>
</g>
<g>
</g>
<g>
</g>
<g>
</g>
<g>
</g>
<g>
</g>
<g>
</g>
<g>
</g>
<g>
</g>
<g>
</g>
<g>
</g>
</svg>
