<?xml version="1.0" encoding="iso-8859-1"?>
<!-- Generator: Adobe Illustrator 19.0.0, SVG Export Plug-In . SVG Version: 6.00 Build 0)  -->
<svg version="1.1" id="Capa_1" xmlns="http://www.w3.org/2000/svg" xmlns:xlink="http://www.w3.org/1999/xlink" x="0px" y="0px"
	 viewBox="0 0 439.823 439.823" style="enable-background:new 0 0 439.823 439.823;" xml:space="preserve">
<g>
	<path d="M436.631,141.723l-41.405-41.405l20.964-62.891c1.284-3.918,0.283-8.207-2.634-11.146
		c-2.939-2.939-7.227-3.94-11.146-2.591l-62.891,20.92L298.113,3.205c-3.265-3.265-8.251-4.114-12.408-2.133
		c-4.158,2.046-6.64,6.422-6.117,11.015l6.901,62.086l-62.957,34.961c-3.94,2.199-6.117,6.574-5.486,11.037s3.962,8.076,8.338,9.1
		l43.408,9.992L6.384,402.671c-8.512,8.512-8.512,22.27,0,30.782c4.245,4.223,9.818,6.357,15.391,6.357s11.146-2.133,15.391-6.378
		l263.408-263.364l9.992,43.364c1.023,4.376,4.615,7.706,9.1,8.338l1.524,0.131c3.918,0,7.576-2.112,9.513-5.616l34.961-62.978
		l62.086,6.923c4.637,0.501,8.991-1.959,11.015-6.117C440.745,149.974,439.896,144.988,436.631,141.723z"/>
</g>
<g>
</g>
<g>
</g>
<g>
</g>
<g>
</g>
<g>
</g>
<g>
</g>
<g>
</g>
<g>
</g>
<g>
</g>
<g>
</g>
<g>
</g>
<g>
</g>
<g>
</g>
<g>
</g>
<g>
</g>
</svg>
