<?xml version="1.0" encoding="iso-8859-1"?>
<!-- Generator: Adobe Illustrator 16.0.0, SVG Export Plug-In . SVG Version: 6.00 Build 0)  -->
<!DOCTYPE svg PUBLIC "-//W3C//DTD SVG 1.1//EN" "http://www.w3.org/Graphics/SVG/1.1/DTD/svg11.dtd">
<svg version="1.1" id="Capa_1" xmlns="http://www.w3.org/2000/svg" xmlns:xlink="http://www.w3.org/1999/xlink" x="0px" y="0px"
	 width="428.029px" height="428.029px" viewBox="0 0 428.029 428.029" style="enable-background:new 0 0 428.029 428.029;"
	 xml:space="preserve">
<g>
	<path d="M299.48,140.933c8.461,1.477,17.244,2.536,25.48,2.536c6.975,0,13.191-0.739,18.465-2.2
		c11.158-3.092,20.445-10.336,26.156-20.396c5.689-10.074,7.139-21.749,4.043-32.903c-6.227-22.472-30.73-36.471-53.301-30.194
		c-16.023,4.43-32.072,16.689-44.611,28.443c13.83-18.753,25.201-37.488,25.201-48.518C300.914,16.875,284.055,0,263.227,0
		c-14.674,0-30.301,20.64-49.194,20.64C194.038,20.64,179.479,0,164.809,0c-20.826,0-37.688,16.875-37.688,37.701
		c0,10.602,7.602,26.027,17.66,41.887c-11.156-9.444-24.076-18.215-37.074-21.812C85.16,51.5,60.64,65.499,54.41,87.97
		c-3.092,11.154-1.646,22.829,4.05,32.903c5.698,10.061,14.993,17.305,26.146,20.396c5.273,1.461,11.49,2.2,18.479,2.2
		c8.224,0,17.009-1.06,25.466-2.536C67.687,179.08,25.918,255.917,25.918,341.656c0,30.271,6.678,55.887,6.678,55.887
		c4.387,16.766,22.134,30.486,39.454,30.486h283.93c17.324,0,35.072-13.721,39.459-30.486c0,0,6.672-25.615,6.672-55.887
		C402.111,255.917,360.348,179.08,299.48,140.933z M326.633,80.542c10.41-2.848,21.393,3.521,24.225,13.734
		c1.402,5.059,0.752,10.369-1.844,14.951c-2.592,4.569-6.818,7.859-11.893,9.277c-3.217,0.874-7.303,1.336-12.162,1.336
		c-13.846,0-30.398-3.612-42.521-6.876C294.422,100.308,311.895,84.632,326.633,80.542z M103.084,119.841
		c-4.865,0-8.955-0.462-12.17-1.336c-5.075-1.418-9.306-4.708-11.895-9.277c-2.596-4.582-3.241-9.893-1.846-14.951
		c2.357-8.506,10.153-14.458,18.951-14.458c1.771,0,3.539,0.244,5.277,0.724c14.737,4.09,32.211,19.766,44.211,32.423
		C133.475,116.229,116.926,119.841,103.084,119.841z M283.65,227.197c-1.998,1.322-4.258,1.953-6.488,1.953
		c-3.844,0-7.6-1.862-9.875-5.309l-53.532-81.112l-53.527,81.112c-2.282,3.445-6.033,5.309-9.873,5.309
		c-2.234,0-4.496-0.631-6.492-1.953c-5.447-3.585-6.953-10.92-3.359-16.367l52.699-79.851H175.73c-6.52,0-11.811-5.29-11.811-11.815
		c0-6.52,5.291-11.811,11.811-11.811h76.575c6.522,0,11.812,5.291,11.812,11.811c0,6.525-5.289,11.815-11.812,11.815h-18
		l52.705,79.851C290.605,216.277,289.094,223.612,283.65,227.197z"/>
</g>
<g>
</g>
<g>
</g>
<g>
</g>
<g>
</g>
<g>
</g>
<g>
</g>
<g>
</g>
<g>
</g>
<g>
</g>
<g>
</g>
<g>
</g>
<g>
</g>
<g>
</g>
<g>
</g>
<g>
</g>
</svg>
